<svg xmlns="http://www.w3.org/2000/svg" width="47.94" height="48" viewBox="0 0 47.94 48">
  <defs>
    <style>
      .cls-1 {
        fill: #fff;
        fill-rule: evenodd;
      }
    </style>
  </defs>
  <path id="icon-calendar" class="cls-1" d="M1209.97,544.98h-45.94a1,1,0,0,1-1-1v-42a1,1,0,0,1,1-1h6.99v-3a1,1,0,0,1,1-1h5.99a1,1,0,0,1,1,1v3h15.98v-3a1,1,0,0,1,1-1h5.99a1,1,0,0,1,1,1v3h6.99a1,1,0,0,1,1,1v42A1,1,0,0,1,1209.97,544.98Zm-32.96-46h-3.99v6h3.99v-6Zm23.97,0h-3.99v6h3.99v-6Zm7.99,4h-5.99v3a1,1,0,0,1-1,1h-5.99a1,1,0,0,1-1-1v-3h-15.98v3a1,1,0,0,1-1,1h-5.99a1,1,0,0,1-1-1v-3h-5.99v8h43.94v-8Zm0,10h-43.94v30h43.94v-30Zm-30.96,22h3V522.394l-2.29,2.293a1,1,0,1,1-1.41-1.414l3.99-4a1,1,0,0,1,1.71.707v15H1186a1,1,0,1,1,0,2h-7.99A1,1,0,1,1,1178.01,534.98Zm7.99-13v-2a1,1,0,0,1,1-1h9.99a1,1,0,0,1,.82.429,0.979,0.979,0,0,1,.11.922l-2.49,6.648h0.56a1,1,0,0,1,0,2h-1.31l-2.75,7.351a1,1,0,0,1-.93.648,1,1,0,0,1-.94-1.351l2.49-6.648H1190a1,1,0,0,1,0-2h3.3l2.25-6H1188v1A1,1,0,0,1,1186,521.98Z" transform="translate(-1163.03 -496.969)"/>
</svg>
