<svg xmlns="http://www.w3.org/2000/svg" width="42" height="50" viewBox="0 0 42 50">
  <defs>
    <style>
      .cls-1 {
        fill: #fff;
        fill-rule: evenodd;
      }
    </style>
  </defs>
  <path id="icon-new-task" class="cls-1" d="M1030.51,544.86a1.087,1.087,0,0,1-.49.12,1.056,1.056,0,0,1-.49-0.12,37.945,37.945,0,0,1-20.51-33.706V496.021a1.044,1.044,0,0,1,1.05-1.041h39.9a1.044,1.044,0,0,1,1.05,1.041v15.133A37.953,37.953,0,0,1,1030.51,544.86Zm18.41-47.8h-37.8v14.091a35.838,35.838,0,0,0,18.9,31.6,35.871,35.871,0,0,0,18.9-31.6V497.063Zm-23.1,28.125a1.036,1.036,0,0,1-.74-0.3l-5.25-5.209a1.036,1.036,0,0,1,0-1.473,1.05,1.05,0,0,1,1.48,0l4.54,4.5,15-13.9a1.062,1.062,0,0,1,1.49.051,1.043,1.043,0,0,1-.05,1.471l-15.75,14.583A1.071,1.071,0,0,1,1025.82,525.188Z" transform="translate(-1009.03 -494.969)"/>
</svg>
