<svg xmlns="http://www.w3.org/2000/svg" width="56" height="46" viewBox="0 0 56 46">
  <defs>
    <style>
      .cls-1 {
        fill: #fff;
        fill-rule: evenodd;
      }
    </style>
  </defs>
  <path id="icon-new-project" class="cls-1" d="M899.161,538H854.826a5.8,5.8,0,0,1-5.834-5.75v-27.6a5.8,5.8,0,0,1,5.834-5.75H867.66v-2.3a4.639,4.639,0,0,1,4.666-4.6h9.334a4.64,4.64,0,0,1,4.667,4.6v2.3h12.834a5.8,5.8,0,0,1,5.834,5.75v27.6A5.8,5.8,0,0,1,899.161,538Zm-15.167-41.4a2.319,2.319,0,0,0-2.334-2.3h-9.334a2.318,2.318,0,0,0-2.333,2.3v2.3h14v-2.3Zm18.667,8.05a3.479,3.479,0,0,0-3.5-3.45H854.826a3.48,3.48,0,0,0-3.5,3.45v27.6a3.48,3.48,0,0,0,3.5,3.45h44.335a3.479,3.479,0,0,0,3.5-3.45v-27.6Z" transform="translate(-849 -492)"/>
</svg>
